<?xml version="1.0" standalone="no"?>
<svg
  width="600"
  height="600"
  viewBox="0 0 600 600"
  xmlns="http://www.w3.org/2000/svg"
>
  <g transform="translate(300,300)">
    <path d="M121.1,-183C150.1,-145.6,162.1,-101.1,177.9,-56.8C193.7,-12.5,213.4,31.6,203.2,66.9C193,102.2,152.9,128.8,114.1,156.8C75.2,184.9,37.6,214.4,4.3,208.5C-29,202.6,-58,161.2,-101.9,134.8C-145.8,108.4,-204.6,97,-224.5,65.8C-244.4,34.7,-225.4,-16.2,-193.5,-47C-161.7,-77.9,-117,-88.7,-82.6,-124.3C-48.2,-160,-24.1,-220.5,11,-235.6C46,-250.7,92.1,-220.4,121.1,-183Z" fill="#8ed1fc" />
  </g>
</svg>
  