<?xml version="1.0" standalone="no"?>
<svg
  width="600"
  height="600"
  viewBox="0 0 600 600"
  xmlns="http://www.w3.org/2000/svg"
>
  <g transform="translate(300,300)">
    <path d="M72.9,-102.1C87.7,-103.9,88.4,-72.3,113.9,-44C139.3,-15.7,189.4,9.4,203.8,41.5C218.1,73.6,196.7,112.8,167.2,142.5C137.7,172.3,100.1,192.6,57.3,213.7C14.5,234.8,-33.6,256.5,-44.5,221.4C-55.5,186.4,-29.2,94.5,-49.6,53C-70,11.5,-136.9,20.4,-154.6,11.7C-172.3,2.9,-140.7,-23.5,-113.4,-38.7C-86.1,-54,-63.1,-58.1,-44.9,-54.8C-26.7,-51.5,-13.3,-40.8,7.8,-52.9C29,-65.1,58,-100.3,72.9,-102.1Z" fill="#5613e3" />
  </g>
</svg>
  